<svg width="32" height="32" viewBox="0 0 32 32" xmlns="http://www.w3.org/2000/svg">
  <defs>
    <clipPath id="roundedClip">
      <rect width="32" height="32" rx="6" ry="6"/>
    </clipPath>
    <linearGradient id="bgGradient" x1="0%" y1="0%" x2="100%" y2="100%">
      <stop offset="0%" style="stop-color:#7c3aed;stop-opacity:1" />
      <stop offset="100%" style="stop-color:#8b5cf6;stop-opacity:1" />
    </linearGradient>
  </defs>
  
  <!-- Background with rounded corners -->
  <rect width="32" height="32" rx="6" ry="6" fill="url(#bgGradient)"/>
  
  <!-- Lumi character simplified -->
  <g clip-path="url(#roundedClip)">
    <!-- Face circle -->
    <circle cx="16" cy="15" r="9" fill="#ffffff" opacity="0.95"/>
    
    <!-- Hair -->
    <path d="M8 12 C8 8, 12 6, 16 6 C20 6, 24 8, 24 12 L22 14 C22 10, 19 8, 16 8 C13 8, 10 10, 10 14 Z" fill="#c4b5fd"/>
    
    <!-- Eyes -->
    <circle cx="13" cy="14" r="2" fill="#3b82f6"/>
    <circle cx="19" cy="14" r="2" fill="#3b82f6"/>
    <circle cx="13" cy="13.5" r="0.8" fill="#ffffff"/>
    <circle cx="19" cy="13.5" r="0.8" fill="#ffffff"/>
    
    <!-- Smile -->
    <path d="M12 18 Q16 20 20 18" stroke="#6b7280" stroke-width="1.5" fill="none" stroke-linecap="round"/>
    
    <!-- Cheeks -->
    <circle cx="10" cy="16" r="1.5" fill="#fbbf24" opacity="0.3"/>
    <circle cx="22" cy="16" r="1.5" fill="#fbbf24" opacity="0.3"/>
  </g>
</svg>